<?xml version="1.0" standalone="no"?>
<!DOCTYPE svg PUBLIC "-//W3C//DTD SVG 20010904//EN"
 "http://www.w3.org/TR/2001/REC-SVG-20010904/DTD/svg10.dtd">
<svg version="1.0" xmlns="http://www.w3.org/2000/svg"
 width="676.000000pt" height="682.000000pt" viewBox="0 0 676.000000 682.000000"
 preserveAspectRatio="xMidYMid meet">
<metadata>
Created by potrace 1.16, written by Peter Selinger 2001-2019
</metadata>
<g transform="translate(0.000000,682.000000) scale(0.100000,-0.100000)"
fill="#000000" stroke="none">
<path d="M1105 5742 c-2 -2 -50 -13 -107 -24 -103 -19 -158 -43 -318 -138
-106 -62 -248 -209 -299 -307 -20 -40 -6 -25 53 51 76 100 200 216 261 246 48
22 145 37 145 21 0 -4 -6 -13 -12 -20 -11 -11 -8 -12 15 -7 16 4 27 2 27 -4 0
-5 -4 -10 -10 -10 -5 0 -10 -5 -10 -11 0 -6 7 -8 16 -5 12 5 14 1 8 -16 -6
-20 -5 -21 10 -9 22 18 20 11 -7 -38 -13 -23 -27 -38 -32 -34 -4 5 -5 3 -1 -4
3 -6 -12 -47 -34 -91 -41 -81 -61 -156 -77 -304 -5 -43 -5 -79 0 -81 10 -3
-14 -97 -25 -97 -4 0 -8 -10 -9 -22 0 -22 -1 -22 -9 -3 -5 11 -9 14 -9 6 -1
-8 -7 -11 -17 -7 -13 5 -15 -1 -13 -28 4 -43 -6 -56 -15 -21 -6 23 -8 24 -21
11 -8 -8 -15 -24 -15 -35 0 -27 -44 -29 -59 -3 -10 16 -10 16 -11 -2 0 -12 -5
-16 -15 -12 -8 3 -14 0 -12 -7 1 -7 -7 -11 -20 -10 -25 3 -28 -4 -14 -27 6 -8
7 -19 3 -24 -3 -6 -5 -25 -3 -42 1 -18 -3 -35 -9 -39 -8 -5 -10 -1 -6 12 4 14
1 19 -14 20 -11 1 -20 -1 -20 -5 0 -13 42 -137 56 -164 8 -15 10 -29 6 -32 -5
-3 -6 -20 -4 -38 5 -31 4 -32 -13 -18 -37 31 -115 171 -143 260 -30 92 -46
219 -39 314 4 65 3 76 -6 56 -7 -15 -11 -88 -12 -180 0 -134 3 -166 24 -235
35 -121 70 -203 116 -275 49 -77 75 -128 75 -147 0 -7 5 -13 11 -13 14 0 38
-30 39 -48 0 -18 -36 2 -66 37 -19 22 -24 23 -25 9 -1 -10 -2 -23 -3 -29 0 -6
-9 -16 -19 -24 -16 -12 -13 -19 45 -106 84 -127 256 -301 406 -414 l123 -93
44 47 c85 89 44 11 -110 -209 -102 -146 -279 -430 -272 -437 6 -5 127 129 127
140 0 18 64 100 68 88 3 -8 15 -2 36 18 36 35 54 34 77 -5 l16 -26 39 33 c21
18 83 73 137 122 54 49 101 87 104 83 3 -3 -1 -14 -10 -24 -10 -10 -17 -24
-17 -30 0 -6 -9 -17 -20 -25 -19 -13 -19 -16 -6 -43 16 -29 12 -49 -4 -24 -8
12 -10 10 -10 -9 0 -16 4 -21 15 -18 8 4 22 -4 33 -16 34 -42 141 -86 220 -91
27 -2 59 -9 71 -15 12 -7 25 -10 30 -7 9 6 20 -84 22 -173 1 -38 7 -7 19 94 9
83 28 188 40 235 12 47 25 95 27 108 15 65 37 -27 27 -111 -4 -38 -3 -48 5
-37 10 13 15 8 12 -12 0 -5 3 -8 9 -8 5 0 10 11 10 24 0 14 5 28 10 31 6 3 10
2 10 -4 0 -5 29 -12 64 -16 54 -6 65 -11 70 -29 4 -13 9 -17 13 -10 5 6 22 10
38 9 44 -3 45 -3 45 -22 0 -14 2 -15 9 -4 7 11 17 11 57 1 27 -6 57 -12 67
-13 9 -1 17 -4 17 -7 0 -4 14 -5 30 -2 20 3 30 0 30 -8 0 -9 6 -8 18 3 25 23
56 22 48 0 -38 -115 -70 -200 -78 -211 -13 -15 -31 -88 -63 -256 -18 -92 -25
-159 -24 -235 l1 -106 13 111 c14 124 42 235 54 215 5 -7 14 2 26 29 10 22 24
40 32 40 7 0 13 4 13 8 0 4 35 14 78 21 42 6 90 17 105 23 23 9 31 8 37 -3 6
-9 43 -16 122 -21 62 -3 129 -9 148 -13 19 -3 72 -7 118 -8 63 -2 85 1 92 13
7 12 32 14 137 10 220 -8 615 -4 673 7 140 26 312 78 390 118 26 13 71 33 100
44 29 11 76 34 106 52 53 33 53 33 32 51 -12 10 -27 18 -35 18 -7 0 -13 5 -13
10 0 6 -10 10 -21 10 -17 0 -19 3 -10 13 6 8 8 17 5 20 -4 3 7 9 22 12 42 9
185 84 209 108 11 12 34 31 50 42 102 70 206 204 243 312 23 66 43 173 41 224
-1 23 -5 11 -13 -36 -49 -279 -194 -439 -511 -565 -206 -82 -648 -133 -856
-98 -39 6 -65 14 -58 18 6 5 -10 11 -38 15 -79 10 -87 25 -13 24 36 -1 70 0
75 1 16 3 -46 20 -95 26 -25 3 -52 12 -60 20 -12 12 -8 14 30 15 l45 1 -50 9
c-86 16 -95 19 -95 34 0 10 11 15 33 16 27 0 29 2 12 9 -11 5 -32 9 -47 9 -16
1 -37 10 -47 20 -10 10 -33 22 -50 26 -17 3 -33 10 -36 15 -6 10 78 7 113 -4
12 -4 22 -4 22 1 0 5 -31 17 -70 27 -38 10 -70 22 -70 28 0 7 -4 7 -12 0 -8
-5 -22 -6 -33 -1 -19 7 -18 8 3 8 34 1 22 24 -17 32 -40 8 -52 19 -20 19 21 0
20 2 -14 25 -20 14 -37 30 -37 35 0 6 -8 10 -18 10 -10 0 -24 10 -31 23 -9 18
-39 32 -119 59 -59 19 -145 50 -192 68 -47 17 -188 70 -315 117 -299 111 -370
140 -550 228 -232 113 -405 231 -602 410 -70 63 -192 208 -238 282 -114 184
-157 380 -116 537 70 265 329 450 716 510 l100 15 -119 -5 c-65 -2 -122 -7
-127 -9 -4 -3 -26 4 -48 15 -32 17 -54 21 -111 18 -39 -2 -73 -5 -75 -6z
m-573 -1522 c56 -64 104 -114 191 -197 96 -92 112 -111 76 -92 -119 63 -313
266 -349 365 l-10 29 31 -35 c17 -19 45 -51 61 -70z"/>
<path d="M6020 5705 c-269 -109 -452 -186 -523 -219 -43 -20 -80 -36 -82 -36
-2 0 -42 -18 -89 -40 -230 -107 -367 -170 -371 -170 -19 0 -562 -283 -650
-338 -22 -14 -76 -44 -120 -67 -44 -22 -107 -59 -140 -81 -33 -22 -71 -45 -85
-52 -138 -69 -659 -441 -769 -549 -13 -12 -27 -23 -31 -23 -14 0 -175 -154
-184 -175 -3 -8 -10 -15 -15 -15 -14 0 -199 -190 -223 -229 -11 -17 -17 -31
-14 -31 4 0 66 61 139 136 252 261 653 572 1097 852 47 30 132 84 190 120 167
106 651 359 925 484 346 158 602 272 925 408 115 49 159 72 135 69 -6 -1 -57
-20 -115 -44z"/>
<path d="M1820 5714 c47 -9 128 -21 180 -29 l95 -14 -90 5 c-153 8 -356 6
-449 -6 -229 -28 -418 -98 -548 -203 -92 -73 -138 -129 -176 -213 -31 -68 -32
-76 -32 -197 0 -128 6 -156 55 -264 8 -17 15 -35 15 -41 0 -20 56 -109 111
-177 108 -132 192 -211 419 -389 34 -26 94 -66 134 -89 39 -22 78 -46 86 -52
24 -20 303 -143 445 -198 196 -74 624 -214 699 -228 36 -7 66 -16 66 -20 0 -4
21 -11 48 -14 26 -4 54 -9 62 -12 8 -4 27 -8 43 -10 15 -1 38 -9 50 -18 12 -8
45 -17 72 -20 28 -3 68 -11 90 -17 22 -5 51 -12 65 -14 14 -3 31 -7 39 -10 14
-5 72 -13 261 -40 140 -20 398 -27 521 -14 125 12 295 66 376 119 103 66 166
139 199 228 26 70 29 90 28 193 0 102 -4 125 -31 200 -30 84 -114 232 -170
299 -77 93 -65 94 29 4 69 -68 70 -68 45 -24 -31 54 -283 310 -313 317 -13 3
-33 3 -46 -1 -45 -14 -468 -277 -468 -291 0 -2 17 4 38 15 l38 19 43 -40 c25
-22 40 -43 34 -46 -115 -75 -172 -116 -168 -120 3 -3 11 0 17 6 7 7 18 12 25
12 7 0 30 10 51 23 58 35 139 60 174 53 35 -7 136 -66 163 -96 10 -11 24 -20
32 -20 7 0 13 -7 13 -15 0 -8 8 -19 18 -24 10 -5 31 -28 46 -49 19 -28 44 -47
79 -62 29 -12 58 -27 66 -33 7 -7 19 -12 25 -12 21 0 63 -41 84 -80 23 -47 42
-130 42 -185 0 -46 17 -54 26 -12 3 15 10 36 15 47 7 15 8 12 4 -15 -9 -61
-65 -158 -120 -208 -191 -174 -525 -214 -1070 -127 -82 13 -166 27 -185 29
-50 8 -202 49 -292 80 -42 14 -87 26 -101 26 -13 0 -111 29 -218 64 -284 94
-330 112 -551 205 -54 22 -104 41 -112 41 -8 0 -17 4 -20 9 -6 10 76 152 99
171 8 7 15 15 15 19 0 17 -399 -15 -418 -33 -2 -3 10 -12 26 -20 17 -9 34 -21
37 -27 10 -16 -67 26 -175 94 -274 174 -503 409 -611 628 -50 101 -75 264 -55
357 6 26 11 31 21 22 10 -8 15 -6 20 9 8 27 17 26 31 -3 9 -18 8 -26 -5 -35
-9 -6 -10 -9 -3 -6 6 3 12 0 12 -7 0 -7 26 13 58 43 74 72 112 98 197 141 149
75 312 114 515 122 98 5 100 4 30 -4 -41 -4 -76 -13 -78 -19 -2 -6 -16 -11
-32 -11 -16 0 -30 -5 -32 -12 -3 -7 -9 -8 -19 -3 -16 11 -42 13 -49 4 -3 -3
-23 -13 -45 -22 l-40 -17 90 2 c50 1 97 -2 105 -5 8 -3 26 -6 40 -6 70 2 262
-11 301 -20 24 -6 73 -11 109 -11 36 0 85 -5 110 -11 25 -6 96 -11 158 -11 63
1 112 -3 112 -9 0 -5 5 -9 11 -9 5 0 7 5 4 10 -3 6 -2 10 4 10 5 0 13 -5 16
-10 4 -6 19 -9 33 -8 15 1 32 -1 37 -4 6 -4 52 -9 104 -13 110 -8 204 -26 246
-48 17 -9 42 -19 58 -22 23 -5 -15 -27 -250 -145 -263 -132 -480 -256 -469
-267 2 -3 45 17 93 45 163 91 721 366 937 461 l38 17 -53 40 c-152 114 -454
240 -729 305 -169 40 -452 76 -640 82 l-155 5 85 -14z m2774 -1474 c69 -137
79 -177 74 -297 -6 -135 -26 -160 -25 -31 0 58 -6 120 -17 163 -22 84 -83 220
-129 284 -53 74 -52 80 3 21 29 -31 70 -92 94 -140z"/>
<path d="M1658 2432 c2 -31 12 -82 22 -112 10 -30 24 -84 30 -120 7 -36 16
-74 21 -85 5 -11 16 -42 25 -70 9 -27 24 -68 34 -90 10 -22 28 -62 40 -90 37
-84 89 -187 125 -250 57 -100 65 -117 59 -126 -7 -12 25 -63 120 -189 146
-193 365 -439 565 -633 180 -173 214 -185 62 -22 -187 203 -391 451 -391 477
0 6 -3 8 -7 5 -5 -6 -24 15 -60 70 -67 99 -119 169 -130 176 -7 4 -13 15 -13
22 0 8 -4 15 -10 15 -5 0 -10 5 -10 12 0 28 -41 96 -58 94 -12 -1 -18 8 -20
33 -3 25 -6 31 -12 21 -7 -11 -12 -7 -21 15 -7 17 -13 38 -14 47 -3 27 -27 78
-36 78 -5 0 -9 9 -9 19 0 11 -4 22 -9 25 -4 3 -6 17 -3 31 2 14 0 25 -6 25 -6
0 -14 9 -17 21 -6 16 -9 18 -22 8 -12 -10 -16 -10 -23 1 -5 9 -5 17 1 20 11 8
-23 50 -40 50 -7 0 -9 4 -6 10 3 5 1 19 -5 30 -9 16 -8 18 5 14 10 -4 15 0 15
14 0 24 -16 38 -23 20 -6 -17 -27 36 -33 82 -3 18 -7 36 -9 38 -2 3 0 13 6 23
5 11 6 19 2 19 -5 0 -13 10 -18 23 -6 12 -16 21 -23 20 -10 -3 -17 16 -13 40
0 4 -4 7 -9 7 -5 0 -10 7 -10 15 0 8 4 15 10 15 6 0 6 10 -1 27 -5 14 -8 32
-5 39 3 8 0 28 -5 46 -6 18 -13 40 -15 48 -4 12 -7 12 -13 1 -7 -11 -10 -9
-15 7 -4 11 -13 25 -20 31 -10 9 -12 -1 -8 -47z"/>
</g>
</svg>
