<svg height="460pt" viewBox="26.44 42.27 2107.21 354.1" width="2880" xmlns="http://www.w3.org/2000/svg"><path d="m26.44 53.83c14.38-5.11 29.09-10.08 44.49-10.51 8.28-.02 16.58-1.05 24.84-.1 28.39 1.45 55.75 9.68 83.39 15.58 19.97 4.63 40.27 8.17 60.79 8.75 5.39.13 10.7-1.12 16.09-1.12 14.36-1.35 28.33-5.65 41.52-11.38-.31 6.98-.21 13.98-.75 20.96.07 21.61-.98 43.24-.15 64.85-4.55 1.29-8.8 3.42-13.32 4.78-22.52 7.19-46.7 7.13-69.91 3.98.03-14.8-.16-29.61.11-44.41-22.77 9.96-45.44 20.12-68.12 30.28-17.19-4.33-34.8-7.1-52.49-8.39-7.28-.73-14.66-.73-21.93.16-9.24.31-18.37 2.08-27.26 4.58-5.89 1.88-12.04 3.44-17.19 7.02.37-28.34.11-56.69-.11-85.03z" fill="#f2c319"/><path d="m1559.6 51.42c8.79-3.06 18.13-4.11 27.36-4.72 6.33.71 12.74.89 18.99 2.32 15.22 2.98 29.81 11.73 37.81 25.28 5.79 8.99 8.89 19.42 10.23 29.96 2.71 23.98-1.22 47.95-2.61 71.86-2.73 30.81-5.92 61.58-8.16 92.42-23.39-.33-46.79-.33-70.17-.01 2.03-26.23 4.9-52.39 6.9-78.62 1.16-11.33 1.9-22.7 3.05-34.03 1.67-11.19 2.18-22.57 1.34-33.86-.56-6.9-3.22-14.16-9.16-18.19-7.29-5.13-16.93-4.78-25.23-2.79-9.35 2.25-16.94 8.91-22.42 16.57-4.72 6.9-7.56 14.87-9.8 22.87-5.15 18.47-4.94 37.8-7 56.72-1.66 23.81-4.48 47.55-5.93 71.4-23.46-.42-46.94-.41-70.4-.06 3.93-37.47 6.27-75.08 10.01-112.58.91-11.96 1.98-24 .57-35.98-.39-6.49-2.91-13.63-8.9-16.95-7.63-4.25-16.95-4.02-25.17-1.83-9.49 2.34-17.53 8.98-22.59 17.22-10.82 16-12.26 35.88-14.03 54.54-1.51 16.32-2.71 32.69-4.45 48.97-.6 15.56-2.9 31.03-3.18 46.6-23.51-.32-47.02-.21-70.52-.14 3.93-52.14 9.58-104.15 13.42-156.31 1.57-19.99 4.07-39.92 5.06-59.95 23.43.15 46.87.19 70.31.01-.92 10.47-1.88 20.94-2.94 31.39 13.69-17.91 33.36-32.28 56.09-35.46 16.87-2.22 35.07-.33 49.62 9.14 11.23 6.97 20.03 17.94 23.95 30.61 4.38-4.7 8.2-9.9 12.88-14.33 9.89-9.79 21.81-17.68 35.07-22.07zm-1126.51-3.22c4.19-1.24 8.62-.42 12.91-.78 10.66-.2 21.36-.24 31.96.93 19.02 1.27 37.68 5.45 56.25 9.54 1.74.39 3.46.89 5.16 1.46-1.43 9.83-1.63 19.78-2.65 29.65-.61 7.7-1.26 15.39-1.54 23.1-6.55-1.96-12.76-4.88-19.25-7.02-13.68-5.12-28.08-7.88-42.49-10.08-12.44-1.53-25.13-1.99-37.52.3-6.06 1.43-12.61 2.86-17.08 7.54-2.04 1.91-3.11 4.52-4.02 7.09-1.31 5.28-.41 11.58 4.15 15.06 4.64 3.32 10.42 4.39 15.88 5.63 22.41 3.81 45.35 5.38 67.08 12.48 11.71 3.93 23.96 9.35 30.99 20.05 8.71 13.54 9.29 30.51 7.33 46.02-.45 1.93-.76 3.89-1.04 5.85-.31 1.06-.6 2.13-.85 3.22-3.18 15.02-12.93 28.05-25.36 36.81-6.98 4.91-14.85 8.39-22.85 11.26-10 3.62-20.65 4.71-31.13 6.11-10.92 1.59-21.99 1.21-32.99 1.27-21.85-.62-43.58-3.83-64.84-8.82-5.91-1.45-11.73-3.33-17.74-4.35 1.38-17.96 3.28-35.88 4.23-53.87 6.55 3.05 13.03 6.26 19.77 8.88 23.46 8.77 48.71 12.94 73.74 11.44 8.65-.4 17.59-1.97 24.94-6.83 7.57-4.72 11.31-15.35 7.38-23.54-1.95-4.12-6.33-6.32-10.51-7.5-10.78-3.07-21.98-4.1-33.04-5.66-18.3-2.81-37.15-5.67-53.55-14.83-12.13-6.38-20.74-18.86-22.57-32.43-2.27-11.67-1.02-23.63 1.2-35.2 3.81-16.5 14.64-31.23 29.44-39.54 14.83-8.26 31.8-11.99 48.61-13.24zm240.43-.52c10.49-.23 20.99-.58 31.49-.18 18.3 1.33 36.74 5.47 52.77 14.68 5.92 3.61 11.62 7.65 16.69 12.38 13.47 13.28 22.41 30.98 25.31 49.66 3.79 22.84 1.66 46.49-5.02 68.6-4.3 14.26-11.41 27.66-20.84 39.19-11.88 14.58-27.94 25.42-45.33 32.35-15.09 6.09-31.43 8.33-47.57 9.36-17.53 1.17-35.16-1.2-52.14-5.59-14.82-4.47-28.74-12.32-39.82-23.19-7.53-8.13-13.92-17.45-18.2-27.7-6.77-17.16-8.05-35.97-6.96-54.24 1.33-17.59 4.8-35.27 12.65-51.18 8.82-18.12 22.44-34.06 39.61-44.74 14.75-9.54 31.77-15.13 49.03-17.96 2.76-.51 5.56-.7 8.37-.74zm-12.44 57.39c-11.18 7.98-17.5 20.94-21.37 33.77-3.64 17.09-5.64 34.92-2.2 52.21 1.97 10.54 7.46 20.81 16.47 26.92 19.31 11.86 47.7 6.59 60.39-12.55 10.32-14.98 14.06-33.54 14.79-51.45.31-13.23-.12-27.32-7.24-38.94-4.87-8.93-13.76-15.55-23.83-17.25-12.6-2.08-26.56-.58-37.01 7.29zm216.83-41.24c17.03-9.03 36.05-14.25 55.26-15.61 5.51-1.26 11.24-.53 16.85-.87 15.78-.43 31.58 1.44 46.89 5.33 6.96 1.93 13.8 4.3 20.85 5.91-1.66 19.48-3.79 38.94-4.4 58.48-16.76-13.85-38.75-21.08-60.43-20.16-12.82.55-25.83 4.05-36.25 11.78-13.42 9.38-21.52 24.89-24.53 40.73-2.31 13.42-2.64 27.41.79 40.67 3.76 11.93 12.25 22.59 23.53 28.19 11.11 4.65 23.4 7.06 35.44 5.65 18.97-1.4 38.1-7.47 53.01-19.56-1.25 19.34-3.35 38.62-4.65 57.95-13.71 4.72-27.86 8.05-42.26 9.68-20.93 3.07-42.33 2.26-63.05-1.89-18.75-3.56-36.53-12.36-50.44-25.48-12.16-12.07-20.9-27.68-24.19-44.53-2.29-11.87-2.99-24.06-2.16-36.11 1.22-21.98 6.96-44.1 19.05-62.68 9.98-15.77 24.28-28.64 40.69-37.48zm267.74-15.71c18.57-1.63 37.57-1.37 55.75 3.17 20.99 4.78 40.8 16.2 53.7 33.68 11.94 15.69 17.13 35.57 17.8 55.04 1.07 17.66-1.73 35.36-6.34 52.37-5.51 17.85-15.03 34.62-28.5 47.67-14.43 14.02-32.66 23.97-52.13 28.94-24.21 5.4-49.55 6.76-73.95 1.82-25.08-4.23-49.06-18.33-62.58-40.22-8.6-13.67-13.14-29.69-14.15-45.75-1.46-19.37.81-39.08 6.85-57.56 8.22-27.58 27.96-51.55 53.5-64.83 15.4-8.32 32.69-12.69 50.05-14.33m21.76 49.37c-9.28-.79-18.99-.48-27.59 3.45-10.94 4.72-18.89 14.5-23.71 25.14-7.91 18.49-10.18 39.08-8.15 58.99 1.33 12.01 6.36 24.31 16.04 31.95 13.51 9 31.94 9.61 46.27 2.13 11.84-5.86 19.53-17.62 24.01-29.69 4.32-12.66 6.33-26.06 6.46-39.42.24-11.14-1.1-22.64-5.95-32.78-5.06-10.67-15.6-18.44-27.38-19.77zm591.47-41.34c11.31-4.27 23.22-6.93 35.27-7.97 5.52-1.19 11.22-.54 16.83-.89 20.19-.5 40.89 3.02 58.73 12.85 16.35 9.22 29.71 23.7 37.33 40.89 6.45 14.04 8.75 29.64 8.77 45 .09 11.41-1.31 22.77-2.12 34.14-9.52-.93-19.13-.23-28.68-.48-33.02-.12-66.04-.05-99.05-.05-11.19-.11-22.39.25-33.56-.27 1.42 10.59 2.71 21.98 9.78 30.55 4.35 6.22 11.1 10.12 17.95 13.03 9.18 3.45 19.09 4.58 28.85 4.4 26.3-.29 52.07-7.72 75.93-18.44 5.59-2.66 11.51-4.83 16.47-8.66-1.16 18.34-3.53 36.6-4.22 54.97-10.18 3.14-20.28 6.5-30.57 9.28-15.78 4.78-32.23 6.64-48.56 8.35-21.26 2.2-42.85.93-63.67-3.86-19.65-4.88-38.39-15.21-51.17-31.17-9.58-11.33-15.02-25.49-18.17-39.84-3.58-22.96-2.32-46.82 4.79-69.01 9.64-33.46 36.17-61.42 69.07-72.82m34.11 39.82c-11.47 2.75-21.13 10.82-27.38 20.64-3.82 6.44-6.36 13.54-8.77 20.6 2.71-.12 5.44-.32 8.19-.34 27.21-.11 54.44-.11 81.65.24-.77-7.92-.55-16.32-4.32-23.56-4.19-9.09-12.71-16.01-22.39-18.44-8.85-2.39-18.22-1.42-26.98.86zm249.23-47.12c21.18-2.54 42.84-2.27 63.75 2.24 9.44 1.54 18.33 5.31 27.68 7.28-1.04 19.57-3.25 39.05-4.3 58.61-6.58-5.98-14.58-10.07-22.7-13.52-9.39-3.93-19.53-6.05-29.69-6.32-3.97-.92-7.95.15-11.92.21-15.51.99-30.85 7.76-41.13 19.57-8.78 9.67-13.81 22.18-16.13 34.92-.61 7.68-2.06 15.36-1.22 23.1.8 6.29 1.35 12.76 3.9 18.64 4.1 10.01 11.39 18.99 21.03 24.1 9.21 4.34 19.39 6.27 29.53 6.74 19.62-.56 39.51-5.54 55.88-16.68 1.56-1.15 2.98-2.49 4.47-3.77-1.78 19.51-3.55 39-4.79 58.54-10.7 3.17-21.4 6.5-32.47 8.08-12.29 2.06-24.7 3.23-37.15 3.59-12.33-.55-24.66-1.67-36.73-4.31-14.5-2.82-28.27-8.99-40.26-17.57-16.3-11.82-28.01-29.66-32.72-49.2-2.46-10.18-3.25-20.7-3.1-31.14.1-20.03 3.78-40.25 12.51-58.38 7.76-16.68 20.03-31.16 34.94-41.89 17.73-12.81 39.05-20.01 60.62-22.84zm-1896.8 86.64c22.68-10.16 45.35-20.32 68.12-30.28-.27 14.8-.08 29.61-.11 44.41 0 12.54-.08 25.09.1 37.63 27.7-.09 55.4.25 83.09-.12-.63 14.59-.12 29.21-.22 43.81.06 13.46-.22 26.93.18 40.39-27.95-.84-55.93-.57-83.9-.51.04-27.27.33-54.54-.12-81.8-14.41 7.01-29.2 13.2-43.82 19.77-42.96 19.11-85.9 38.27-128.89 57.32-4.49 2.28-9.45 3.77-13.35 7.05.3-28.47.16-56.95.11-85.42 16.63-6.16 32.47-14.26 48.78-21.19 23.39-10.25 46.62-20.88 70.03-31.06zm470.28 182.96c5.91.26 11.83 0 17.75.07-.1 4.97-.07 9.94-.06 14.91-5.9-.01-11.79-.24-17.67-.02.02-4.99.04-9.98-.02-14.96zm1002.94.01c5.83.23 11.68.14 17.52.12-.14 15.46-.02 30.92-.11 46.38-.03 9.54.36 19.09-.19 28.63-5.66-1.43-11.47-.47-17.18-.25.17-24.96.34-49.93-.04-74.88zm222.7.14c5.99.06 11.97-.04 17.97-.08-.08 4.99-.07 9.98-.09 14.97-5.94-.03-11.87-.13-17.79.04-.07-4.98-.08-9.96-.09-14.93zm-397.95 4.87c12.82-5.42 26.91-1.48 40.09.15-.1 5.71-.03 11.43.1 17.14-5.2-3.56-11.5-4.92-17.61-5.89-4.8-.57-10.03-.75-14.4 1.61-2.87 1.47-2.97 5.38-2.08 8.07 1.25 1.8 3.58 2.39 5.59 3 9.08 2.36 19.09 2.78 26.93 8.49 5.59 4.5 6.7 12.33 5.82 19.06-.49 7.52-5.54 14.91-12.99 16.95-13.8 4.32-28.32 1.13-42.02-1.9-.11-5.9-.22-11.81-.37-17.71 8.46 6.12 19.18 8.82 29.55 7.78 2.84-.28 5.96-1.41 7.4-4.08 1.35-3.28.19-7.97-3.55-9.02-9.18-3.16-19.69-3.19-27.66-9.31-10.62-8.97-7.88-29.05 5.2-34.34zm-1415.63-1.94c6.38.14 12.78.35 19.16.1-.58 23.88-.11 47.78-.08 71.67-6.34-.03-12.69-.66-19.01.03.19-23.93.76-47.88-.07-71.8zm883.04.13c10.4.27 20.81.2 31.22.24 8.18.17 17.05 2.01 22.79 8.3 8.32 10.03 6.68 27.87-5.16 34.53-9.04 5.2-19.87 3.84-29.84 3.59-.16 8.33.49 16.64.45 24.97-6.48-.03-12.96-.14-19.43.06.07-23.9.67-47.8-.03-71.69m19.08 13.73c.03 6.57-.04 13.13-.04 19.7 5.26-.27 10.92.92 15.85-1.45 6.56-2.86 6.75-14.5-.24-16.9-5.08-1.31-10.38-1.01-15.57-1.35zm-383.7-10.99c5.78.2 11.57.13 17.35-.11-.08 5.17-.1 10.35-.09 15.53 5.81.01 11.64-.05 17.46-.21-.13 4.26.28 8.52.05 12.79-5.88-.14-11.76-.07-17.64-.13.07 7.59.11 15.19.29 22.78.15 1.42-.09 3.06.83 4.29 4.77 1.85 10 .9 14.97.95.02 4.34-.01 8.69.04 13.04-7.83-.42-15.81.46-23.51-1.32-5.3-1.25-9.22-6.27-9.4-11.68-.36-9.44-.1-18.89-.1-28.33-2.78.12-5.55.32-8.31.6-.02-4.4.01-8.8-.03-13.2 2.84.18 5.69.3 8.55.4-.17-5.14-.02-10.28-.46-15.4zm1225.87.03c5.94.1 11.89.02 17.85.02-.1 5-.13 10.01-.14 15.02 5.82-.02 11.63.02 17.46.11-.57 4.36-.48 8.76-.38 13.14-5.72-.25-11.45-.04-17.15-.46.04 9.14-.26 18.32.5 27.44 5.06 1.19 10.35.84 15.46.04-.09 4.59-.14 9.19-.06 13.79-7.89-.72-15.91.05-23.71-1.41-5.96-1.24-9.32-7.31-9.54-13.01-.4-8.97-.13-17.96-.26-26.94-2.78.19-5.55.4-8.29.62-.04-4.46 0-8.93-.22-13.38 2.83.03 5.68.1 8.54.12.01-5.03.04-10.07-.06-15.1zm-1654.32 14.36c6.41-1.15 14.04-.27 18.72 4.68 2.91 3.88 5.05 8.59 4.95 13.53.07 12.08.16 24.17.09 36.26-5.85-.23-11.7-.09-17.54.04-.36-11.74.78-23.53-.44-35.24-.32-3.37-2.91-6.67-6.55-6.56-6.94-.46-11.61 6.85-11.53 13.11-.1 9.51-.05 19.03-.09 28.55-5.83-.04-11.67-.17-17.5.16.14-17.98.65-35.97-.1-53.95 5.88.34 11.77.26 17.65.04-.18 2.7-.26 5.41-.3 8.12 3.31-3.98 7.3-7.92 12.64-8.74zm90.9.91c6.54-2.53 14.54-1.91 20.1 2.55 4.58 3.73 6.09 9.84 6.27 15.5.52 11.81.43 23.64.39 35.46-5.96.15-11.92-.57-17.87-.05-.08-11.08.07-22.15.05-33.23.07-3.47-2.07-7.15-5.51-8.14-3.99-.69-8.56.98-10.55 4.66-2.39 3.72-2.4 8.3-2.68 12.56-.07 7.95-.09 15.9 0 23.85-5.82.22-11.65.22-17.48.38-.14-17.91.24-35.82-.15-53.73 6.04.16 12.09.17 18.13-.02-.57 2.53-.86 5.11-.87 7.71 3.22-2.7 5.99-6.26 10.17-7.5zm85.86-.94c9.57-1.3 20.5.03 27.78 6.94 5.27 4.92 7.43 12.27 7.86 19.28.5 9.63-3.31 20.14-11.94 25.22-8.06 4.52-17.88 4.86-26.78 3.11-6.5-1.17-12.5-5.12-15.91-10.83-5.05-8.08-5.13-18.38-2.44-27.29 2.98-9.18 11.99-15.5 21.43-16.43m3.76 12.39c-2.14.6-4.4 1.54-5.57 3.55-3.58 5.29-3.67 12.2-2.2 18.22.88 3.49 2.85 7.25 6.58 8.29 3.85.8 8.74.73 11.36-2.68 4.26-5.5 4.32-13.14 2.61-19.6-1.28-5.45-7.35-9.19-12.78-7.78zm156.54-10.44c12.8-2.11 26.53-4.62 38.98.4 6.58 2.67 9.99 9.6 10.4 16.39.64 11.93.22 23.89.57 35.83-6.1-.27-12.2-.24-18.29.03.24-2.7.42-5.4.52-8.1-2.77 3.43-5.87 7.06-10.36 8.12-7.28 1.82-16.12 1.38-21.62-4.36-4.92-5.34-5.21-13.49-2.95-20.08 1.67-4.8 6.52-7.56 11.17-8.83 7.59-2.25 15.57-1.52 23.36-1.53 1.34-3.68-1.85-7.22-5.34-7.88-8.99-2.06-18.66-.21-26.57 4.43.07-4.81.24-9.61.13-14.42m17.38 29.46c-4.64 1.09-5.79 7.93-2.15 10.77 3.02 2.28 7.27 1.68 10.64.59 4.98-2.08 6.72-8.08 5.95-13.04-4.81.56-9.75.44-14.44 1.68zm291.99-22.96c6.32-7.33 16.59-9.42 25.85-8.85 8.25.5 16.57 4.52 20.89 11.79 4.14 6.18 3.99 13.85 4.64 20.96-13.51.11-27.01.01-40.52.02 1.14 4.45 3.62 9.36 8.51 10.49 9.93 2.23 20.24-.85 28.87-5.8.03 4.82-.05 9.65-.12 14.47-11.37 3.18-23.56 5.42-35.25 2.7-8.97-2.02-16.62-9.34-18.28-18.51-1.35-9.23-1.3-19.97 5.41-27.27m19.2 3.29c-4.42 1.26-6.91 5.68-8.24 9.77 7.7-.18 15.41-.04 23.12-.18-1.38-3.47-3.3-6.86-6.23-9.24-2.6-1.57-5.87-1.11-8.65-.35zm241.15-11.7c9.49-1.56 20.06-.18 27.79 5.91 6.98 5.87 9.09 15.55 8.47 24.29 0 9.11-4.99 18.34-13.45 22.19-8.27 3.53-17.73 3.89-26.41 1.79-6.16-1.48-11.81-5.36-14.82-11.01-4.43-7.27-4.16-16.29-2.77-24.39 1.98-10.11 11.29-17.36 21.19-18.78m4.75 12.35c-4.04.61-6.71 3.96-7.69 7.73-2.04 6.08-1.62 13.21 1.77 18.73 2.8 4.35 8.91 4.73 13.33 2.94 4.06-1.78 5.53-6.44 5.99-10.51.4-4.64.4-9.64-1.86-13.85-2.11-4.05-7.23-5.94-11.54-5.04zm199.67-11.99c10.14-2.17 22.11-.53 29.34 7.54 6.3 6.44 6.88 15.89 7.51 24.38-13.49.01-26.99.3-40.46-.34.26 5.02 3.61 10.25 8.86 11.04 9.77 1.69 19.91-1 28.37-5.94.05 4.75.02 9.5-.11 14.25-11.14 3.37-23.12 5.48-34.67 3.11-8.77-1.67-16.52-8.35-18.84-17.06-1.69-6.72-1.81-14 .36-20.64 2.79-8.57 10.8-14.96 19.64-16.34m-3.61 21.07c7.59-.24 15.18.03 22.78-.15-1.23-3.65-3.29-7.24-6.57-9.38-6.84-3.02-15.32 2.27-16.21 9.53zm101.74-20.08c4.62-1.92 9.74-2.02 14.68-1.98-.06 5.63.18 11.26.54 16.89-4.76-2.21-10.38-3.46-15.42-1.45-5.06 2.23-7.39 8.08-7.42 13.32-.07 8.76.15 17.53 0 26.29-5.87-.04-11.74-.13-17.6.13-.08-17.95.82-35.91-.09-53.85 5.88.16 11.77.14 17.65-.1-.45 2.81-.72 5.64-.73 8.48 2.72-2.63 4.99-5.9 8.39-7.73zm220.51-1.47c9.54-1.23 20.22.43 27.41 7.32 6.41 6.51 7.85 16.24 6.93 25-.58 9.32-6.88 18.37-15.95 21.18-8.03 2.46-16.81 2.69-24.9.41-8.83-2.44-15.62-10.52-16.97-19.51-1.08-7.62-.79-15.97 3.43-22.67 4.13-7.05 12.06-11.05 20.05-11.73m.89 13.08a8.478 8.478 0 0 0 -4.62 4.21c-3.19 6.01-2.89 13.48-.41 19.68 2.24 5.8 9.89 7.29 15.05 4.71 4.21-2.96 5.38-8.53 5.63-13.37-.08-4.34-.46-9.15-3.44-12.57-2.85-3.54-8.15-4.53-12.21-2.66zm370.08-12.99c9.63-1.31 20.58-.15 27.99 6.76 7.27 6.95 9.29 17.96 7.42 27.56-1.04 6.84-5.29 13.08-11.04 16.84-8.24 4.63-18.28 5.32-27.39 3.32-6.47-1.32-12.46-5.24-15.83-10.96-4.94-8.77-5.46-19.84-1.48-29.07 3.4-8.12 11.78-13.4 20.33-14.45m2.81 12.82c-4.44 1.29-6.65 6.05-7.08 10.32-.37 5.65-.55 12.05 3.27 16.69 2.77 3.27 7.61 3.38 11.5 2.48 3.65-1 5.69-4.66 6.48-8.13 1.22-5.38 1.22-11.29-1.1-16.38-2.17-4.77-8.28-7.04-13.07-4.98zm96.51-11.92c6.3-2.35 13.82-1.77 19.5 1.92 4.88 3.83 7.16 10.29 7 16.38.01 11.63.08 23.26.07 34.89-5.8-.1-11.58.3-17.35.36.05-10.73.07-21.47-.02-32.21.14-3.88-1.87-8.65-6.08-9.39-7.5-1.19-12.99 6.45-12.75 13.29-.16 9.47-.06 18.94-.09 28.41-5.77-.62-11.6-.62-17.35-.04-.12-17.92.28-35.85-.12-53.77 5.83.14 11.68.2 17.51-.21-.22 2.61-.36 5.23-.31 7.87 3.25-2.58 5.93-6.11 9.99-7.5zm78.95-.86c9.95-1.73 19.92.59 29.75 2.03-.04 4.78-.03 9.55.27 14.32-7.13-3.24-14.89-5.66-22.81-5.19-2.17.21-4.57.36-6.23 1.9-1.13 1.69-.87 3.76-.43 5.63 8.77 2.62 18.56 1.67 26.65 6.46 3.65 1.91 5.42 6.05 5.72 9.99.43 4.68.23 9.98-3.04 13.7-3.59 4.22-9.35 5.5-14.61 6.09-9.96 1.27-19.89-.77-29.7-2.27-.24-4.96-.16-9.93-.25-14.9 6.61 4.69 14.92 5.9 22.86 5.78 2.75-.2 5.86-.42 8.05-2.35 1.06-1.61.41-3.68.56-5.48-8.59-3.1-18.64-1.46-26.47-6.69-6.41-4.31-6.78-13.4-4.22-20 2.36-5.48 8.21-8.42 13.9-9.02zm-1737.6.57c6.22.3 12.45.29 18.68.2 3.25 12.13 8.46 23.64 11.86 35.75 1.92-1.36 2.12-3.87 2.88-5.91 2.98-10.1 7.14-19.81 10.1-29.91 6.07.11 12.15.27 18.22.1-5.38 12.31-9.9 24.97-14.89 37.44-2.17 5.36-4.21 10.76-6.03 16.25-6.5-.24-13.02-.31-19.51.06-5.51-15.78-12.02-31.18-18.09-46.75-.97-2.46-2.09-4.85-3.22-7.23zm256.34.26c5.95.22 11.91.14 17.86.12-.33 17.72.06 35.44-.09 53.16-5.87-.07-11.81-.54-17.56.85-.01-18.05-.08-36.09-.21-54.13zm51.25.03c6.15.01 12.3.1 18.45-.06.69 3.7 1.91 7.26 3.27 10.76 3.18 8.21 5.72 16.65 8.64 24.95 1-1.44 1.85-2.99 2.33-4.69 3-10.55 7.3-20.67 10.66-31.1 5.98.19 11.96.37 17.94.03-7.19 17.82-14.3 35.69-20.88 53.74-6.53-.3-13.08-.22-19.61-.01-2.26-7.72-5.53-15.09-8.4-22.59-3.99-10.4-8.24-20.7-12.4-31.03zm425.58-.13c5.98.13 11.95.04 17.93-.02 1.62 9.92 4.37 19.6 6.36 29.44.62 2.1.6 4.6 2.25 6.25 1.73-11.99 6.03-23.44 7.36-35.49 5.28-.03 10.57-.19 15.86-.15 2.28 11.93 5.24 23.74 7.77 35.62 2.12-5.57 3.02-11.49 4.56-17.22 1.41-6.07 3.06-12.12 3.54-18.36 6.23-.09 12.46.16 18.7-.13-3.68 8.74-5.35 18.16-7.91 27.26-2.19 8.85-4.74 17.62-6.58 26.56-6.5-.12-13.01-.21-19.5.02-2.15-12.1-6.22-23.78-7.91-35.97-2.14 5.7-3.21 11.72-4.73 17.6-1.41 6.13-3.38 12.16-4 18.45-6.38-.48-12.78-.08-19.15-.3-1.27-1.45-1.17-3.77-1.78-5.58-4.05-16.04-8.13-32.1-12.77-47.98zm583.75-.03c5.81.14 11.63.18 17.46.12-.17 8.46-.11 16.91-.1 25.37.04 4.07.02 8.26 1.34 12.16 2.13 4.51 8.83 5.21 12.41 2.04 3.08-2.86 5.18-6.93 5.09-11.21.1-9.47.15-18.94-.04-28.41l17.6.12c-.26 17.73-.12 35.46-.04 53.19-5.9.25-11.81.23-17.7.47.41-2.74.7-5.49.79-8.25-3.26 3.36-6.47 7.27-11.27 8.33-6.53 1.5-14.43 1.31-19.57-3.53-3.77-3.99-5.78-9.5-5.79-14.96-.26-11.81-.05-23.63-.18-35.44zm165.11.14c6.03.08 12.07.1 18.12.04-.3 17.85-.15 35.7-.04 53.55-5.99-.06-11.97-.11-17.94.1-.07-17.89-.03-35.79-.14-53.69z" fill="#034994"/></svg>